<svg  width="800" class="poloto_background poloto" height="500" viewBox="0 0 800 500" xmlns="http://www.w3.org/2000/svg" > <style>.poloto { stroke-linecap:round; stroke-linejoin:round; font-family: 'Tahoma', sans-serif; stroke-width:2; } .scatter{stroke-width:7} .poloto_text{fill: black;} .poloto_axis_lines{stroke: black;stroke-width:3;fill:none;stroke-dasharray:none} .poloto_background{background-color: AliceBlue;} .poloto0stroke{stroke:  blue;} .poloto1stroke{stroke:  red;} .poloto2stroke{stroke:  green;} .poloto3stroke{stroke:  gold;} .poloto4stroke{stroke:  aqua;} .poloto5stroke{stroke:  lime;} .poloto6stroke{stroke:  orange;} .poloto7stroke{stroke:  chocolate;} .poloto0fill{fill:blue;} .poloto1fill{fill:red;} .poloto2fill{fill:green;} .poloto3fill{fill:gold;} .poloto4fill{fill:aqua;} .poloto5fill{fill:lime;} .poloto6fill{fill:orange;} .poloto7fill{fill:chocolate;}</style><text  class="poloto_text" alignment-baseline="middle" text-anchor="start" font-size="large" x="675" y="100" >int</text><line  class="poloto0stroke poloto0legend" stroke="black" x1="680" x2="730" y1="81.25" y2="81.25" /><path  class="poloto0stroke" fill="none" stroke="black" d=" M 150 100 L 165.625 101.49999856948853 L 181.25 104.49999570846558 L 196.875 105.9999942779541 L 212.5 107.49999284744263 L 228.125 110.50000786781311 L 243.75 112.00000643730164 L 259.375 115.00000357627869 L 275 119.49999928474426 L 290.625 126.99999213218689 L 306.25 137.5 L 321.875 144.99999284744263 L 337.5 167.50000715255737 L 353.125 180.9999942779541 L 368.75 194.49999928474426 L 384.375 209.50000286102295 L 400 224.50000643730164 L 415.625 241.00000858306885 L 431.25 258.3999991416931 L 446.875 274.00000393390656 L 462.5 288.7000024318695 L 478.125 304.0000021457672 L 493.75 319.59999799728394 L 509.375 332.3499992489815 L 525 344.1999986767769 L 540.625 355.5999994277954 L 556.25 365.05000069737434 L 571.875 372.5500002503395 L 587.5 378.69999930262566 L 603.125 383.79999957978725 L 618.75 388.0000002682209 L 634.375 391.1499999463558 L 650 393.54999978095293" /><text  class="poloto_text" alignment-baseline="middle" text-anchor="start" font-size="large" x="675" y="150" >fit</text><line  class="poloto1stroke poloto1legend" stroke="black" x1="680" x2="730" y1="131.25" y2="131.25" /><path  class="poloto1stroke" fill="none" stroke="black" d=" M 150 101.6413688659668 L 165.625 102.2739589214325 L 181.25 103.20708155632019 L 196.875 104.55076098442078 L 212.5 106.43964409828186 L 228.125 109.03173089027405 L 243.75 112.50419020652771 L 259.375 117.04533100128174 L 275 122.84278273582458 L 290.625 130.06795644760132 L 306.25 138.8582170009613 L 321.875 149.29810762405396 L 337.5 161.4022195339203 L 353.125 175.10188817977905 L 368.75 190.23852348327637 L 384.375 206.56489729881287 L 400 223.75553250312805 L 415.625 241.42549633979797 L 431.25 259.1559886932373 L 446.875 276.52389109134674 L 462.5 293.13182532787323 L 478.125 308.63516330718994 L 493.75 322.7630287408829 L 509.375 335.3311002254486 L 525 346.24558091163635 L 540.625 355.49849569797516 L 556.25 363.15614879131317 L 571.875 369.3427711725235 L 587.5 374.2220312356949 L 603.125 377.97863483428955 L 618.75 380.8020733296871 L 634.375 382.87365287542343 L 650 384.3574285507202" /><text  class="poloto_text" alignment-baseline="start" text-anchor="middle" font-size="x-large" x="400" y="37.5" >Intensity</text><text  class="poloto_text" alignment-baseline="start" text-anchor="middle" font-size="x-large" x="400" y="481.25" >x</text><text  class="poloto_text" alignment-baseline="start" text-anchor="middle" font-size="x-large" transform="rotate(-90,37.5,250)" x="37.5" y="250" >I(x)</text><line  class="poloto_axis_lines" stroke="black" x1="150" x2="150" y1="400" y2="405" /><text  class="poloto_text" alignment-baseline="start" text-anchor="middle" x="150" y="430" > 0</text><line  class="poloto_axis_lines" stroke="black" x1="228.125" x2="228.125" y1="400" y2="405" /><text  class="poloto_text" alignment-baseline="start" text-anchor="middle" x="228.125" y="430" > 5</text><line  class="poloto_axis_lines" stroke="black" x1="306.25" x2="306.25" y1="400" y2="405" /><text  class="poloto_text" alignment-baseline="start" text-anchor="middle" x="306.25" y="430" > 10</text><line  class="poloto_axis_lines" stroke="black" x1="384.375" x2="384.375" y1="400" y2="405" /><text  class="poloto_text" alignment-baseline="start" text-anchor="middle" x="384.375" y="430" > 15</text><line  class="poloto_axis_lines" stroke="black" x1="462.5" x2="462.5" y1="400" y2="405" /><text  class="poloto_text" alignment-baseline="start" text-anchor="middle" x="462.5" y="430" > 20</text><line  class="poloto_axis_lines" stroke="black" x1="540.625" x2="540.625" y1="400" y2="405" /><text  class="poloto_text" alignment-baseline="start" text-anchor="middle" x="540.625" y="430" > 25</text><line  class="poloto_axis_lines" stroke="black" x1="618.75" x2="618.75" y1="400" y2="405" /><text  class="poloto_text" alignment-baseline="start" text-anchor="middle" x="618.75" y="430" > 30</text><line  class="poloto_axis_lines" stroke="black" x1="150" x2="144" y1="400" y2="400" /><text  class="poloto_text" alignment-baseline="middle" text-anchor="end" x="135" y="400" > 0.0</text><line  class="poloto_axis_lines" stroke="black" x1="150" x2="144" y1="325" y2="325" /><text  class="poloto_text" alignment-baseline="middle" text-anchor="end" x="135" y="325" > 0.5</text><line  class="poloto_axis_lines" stroke="black" x1="150" x2="144" y1="250" y2="250" /><text  class="poloto_text" alignment-baseline="middle" text-anchor="end" x="135" y="250" > 1.0</text><line  class="poloto_axis_lines" stroke="black" x1="150" x2="144" y1="175" y2="175" /><text  class="poloto_text" alignment-baseline="middle" text-anchor="end" x="135" y="175" > 1.5</text><line  class="poloto_axis_lines" stroke="black" x1="150" x2="144" y1="100" y2="100" /><text  class="poloto_text" alignment-baseline="middle" text-anchor="end" x="135" y="100" > 2.0</text><path  stroke="black" fill="none" class="poloto_axis_lines" style="stroke-dasharray:7.8125;stroke-dashoffset:-0;" d=" M 150 400 L 650 400" /><path  stroke="black" fill="none" class="poloto_axis_lines" style="stroke-dasharray:7.5;stroke-dashoffset:-0;" d=" M 150 400 L 150 100" /></svg>