<svg  width="800" class="poloto_background poloto" height="500" viewBox="0 0 800 500" xmlns="http://www.w3.org/2000/svg" > <style>.poloto { stroke-linecap:round; stroke-linejoin:round; font-family: 'Tahoma', sans-serif; stroke-width:2; } .scatter{stroke-width:7} .poloto_text{fill: black;} .poloto_axis_lines{stroke: black;stroke-width:3;fill:none;stroke-dasharray:none} .poloto_background{background-color: AliceBlue;} .poloto0stroke{stroke:  blue;} .poloto1stroke{stroke:  red;} .poloto2stroke{stroke:  green;} .poloto3stroke{stroke:  gold;} .poloto4stroke{stroke:  aqua;} .poloto5stroke{stroke:  lime;} .poloto6stroke{stroke:  orange;} .poloto7stroke{stroke:  chocolate;} .poloto0fill{fill:blue;} .poloto1fill{fill:red;} .poloto2fill{fill:green;} .poloto3fill{fill:gold;} .poloto4fill{fill:aqua;} .poloto5fill{fill:lime;} .poloto6fill{fill:orange;} .poloto7fill{fill:chocolate;}</style><text  class="poloto_text" alignment-baseline="middle" text-anchor="start" font-size="large" x="675" y="100" >int</text><line  class="poloto0stroke poloto0legend" stroke="black" x1="680" x2="730" y1="81.25" y2="81.25" /><path  class="poloto0stroke" fill="none" stroke="black" d=" M 150 101.80496586006751 L 165.625 103.29593960886245 L 181.25 106.27788710645234 L 196.875 107.76886085524728 L 212.5 109.25983460404217 L 228.125 112.24179987544113 L 243.75 113.73277362423607 L 259.375 116.71472112182596 L 275 121.18764236821079 L 290.625 128.64251111218545 L 306.25 139.07934512755907 L 321.875 146.53421387153375 L 337.5 168.89885565107596 L 353.125 182.3176193902304 L 368.75 195.7364009031939 L 384.375 210.64615616495232 L 400 225.55591142671076 L 415.625 241.95664043726413 L 431.25 259.25194303280904 L 446.875 274.75808957146637 L 462.5 289.3696447513231 L 478.125 304.5775912080787 L 493.75 320.08372885983147 L 509.375 332.75701905494526 L 525 344.53572233471067 L 540.625 355.8671343785281 L 556.25 365.26027921587644 L 571.875 372.7151546250295 L 587.5 378.82815188288623 L 603.125 383.89746773875913 L 618.75 388.0721989010098 L 634.375 391.2032464395506 L 650 393.5888065482623" /><text  class="poloto_text" alignment-baseline="middle" text-anchor="start" font-size="large" x="675" y="150" >fit</text><line  class="poloto1stroke poloto1legend" stroke="black" x1="680" x2="730" y1="131.25" y2="131.25" /><path  class="poloto1stroke" fill="none" stroke="black" d=" M 150 100 L 165.625 100.92903700080478 L 181.25 102.2256896948877 L 196.875 103.99910704383166 L 212.5 106.37596298497613 L 228.125 109.49773703862746 L 243.75 113.5155776772333 L 259.375 118.58305061127686 L 275 124.84622100380784 L 290.625 132.43192275644765 L 306.25 141.43519242636665 L 321.875 151.90666759564442 L 337.5 163.84151378821014 L 353.125 177.17147957718242 L 368.75 191.76103966829805 L 384.375 207.4090300903478 L 400 223.8556510759553 L 415.625 240.794997596981 L 431.25 257.8919978045791 L 446.875 274.8020175406167 L 462.5 291.1917356764427 L 478.125 306.7585708862163 L 493.75 321.247362366732 L 509.375 334.4623227240282 L 525 346.27372981250767 L 540.625 356.6189442855071 L 556.25 365.4982638543287 L 571.875 372.9665740414229 L 587.5 379.12212401995214 L 603.125 384.09392720487654 L 618.75 388.02909074880347 L 634.375 391.08130089085887 L 650 393.40118899673246" /><text  class="poloto_text" alignment-baseline="middle" text-anchor="start" font-size="large" x="675" y="200" >other_fit</text><line  class="poloto2stroke poloto2legend" stroke="black" x1="680" x2="730" y1="181.25" y2="181.25" /><path  class="poloto2stroke" fill="none" stroke="black" d=" M 150 101.40430865570283 L 165.625 102.31461206173344 L 181.25 103.58696795879888 L 196.875 105.32961884421894 L 212.5 107.66833219106985 L 228.125 110.74384101967632 L 243.75 114.70688500487711 L 259.375 119.71079879763738 L 275 125.90182529909765 L 290.625 133.40745604181535 L 306.25 142.32368736865158 L 321.875 152.70245434974876 L 337.5 164.540575473281 L 353.125 177.77147005042073 L 368.75 192.26144348924043 L 384.375 207.81094923515744 L 400 224.16164497314023 L 415.625 241.00885206787603 L 431.25 258.0182273966915 L 446.875 274.8457944323899 L 462.5 291.15846310583805 L 478.125 306.6537409602407 L 493.75 321.0763694364423 L 509.375 334.23046782798366 L 525 345.98614513808116 L 540.625 356.28065982066937 L 556.25 365.1141962790175 L 571.875 372.5415556099829 L 587.5 378.66090700458705 L 603.125 383.6011261307697 L 618.75 387.5091701746241 L 634.375 390.5384726539283 L 650 392.83936444591217" /><text  class="poloto_text" alignment-baseline="start" text-anchor="middle" font-size="x-large" x="400" y="37.5" >Intensity</text><text  class="poloto_text" alignment-baseline="start" text-anchor="middle" font-size="x-large" x="400" y="481.25" >x</text><text  class="poloto_text" alignment-baseline="start" text-anchor="middle" font-size="x-large" transform="rotate(-90,37.5,250)" x="37.5" y="250" >I(x)</text><line  class="poloto_axis_lines" stroke="black" x1="150" x2="150" y1="400" y2="405" /><text  class="poloto_text" alignment-baseline="start" text-anchor="middle" x="150" y="430" > 0</text><line  class="poloto_axis_lines" stroke="black" x1="228.125" x2="228.125" y1="400" y2="405" /><text  class="poloto_text" alignment-baseline="start" text-anchor="middle" x="228.125" y="430" > 5</text><line  class="poloto_axis_lines" stroke="black" x1="306.25" x2="306.25" y1="400" y2="405" /><text  class="poloto_text" alignment-baseline="start" text-anchor="middle" x="306.25" y="430" > 10</text><line  class="poloto_axis_lines" stroke="black" x1="384.375" x2="384.375" y1="400" y2="405" /><text  class="poloto_text" alignment-baseline="start" text-anchor="middle" x="384.375" y="430" > 15</text><line  class="poloto_axis_lines" stroke="black" x1="462.5" x2="462.5" y1="400" y2="405" /><text  class="poloto_text" alignment-baseline="start" text-anchor="middle" x="462.5" y="430" > 20</text><line  class="poloto_axis_lines" stroke="black" x1="540.625" x2="540.625" y1="400" y2="405" /><text  class="poloto_text" alignment-baseline="start" text-anchor="middle" x="540.625" y="430" > 25</text><line  class="poloto_axis_lines" stroke="black" x1="618.75" x2="618.75" y1="400" y2="405" /><text  class="poloto_text" alignment-baseline="start" text-anchor="middle" x="618.75" y="430" > 30</text><line  class="poloto_axis_lines" stroke="black" x1="150" x2="144" y1="400" y2="400" /><text  class="poloto_text" alignment-baseline="middle" text-anchor="end" x="135" y="400" > 0.0</text><line  class="poloto_axis_lines" stroke="black" x1="150" x2="144" y1="325.4512414650169" y2="325.4512414650169" /><text  class="poloto_text" alignment-baseline="middle" text-anchor="end" x="135" y="325.4512414650169" > 0.5</text><line  class="poloto_axis_lines" stroke="black" x1="150" x2="144" y1="250.90248293003378" y2="250.90248293003378" /><text  class="poloto_text" alignment-baseline="middle" text-anchor="end" x="135" y="250.90248293003378" > 1.0</text><line  class="poloto_axis_lines" stroke="black" x1="150" x2="144" y1="176.35372439505062" y2="176.35372439505062" /><text  class="poloto_text" alignment-baseline="middle" text-anchor="end" x="135" y="176.35372439505062" > 1.5</text><line  class="poloto_axis_lines" stroke="black" x1="150" x2="144" y1="101.80496586006751" y2="101.80496586006751" /><text  class="poloto_text" alignment-baseline="middle" text-anchor="end" x="135" y="101.80496586006751" > 2.0</text><path  stroke="black" fill="none" class="poloto_axis_lines" style="stroke-dasharray:7.8125;stroke-dashoffset:-0;" d=" M 150 400 L 650 400" /><path  stroke="black" fill="none" class="poloto_axis_lines" style="stroke-dasharray:7.454875853498312;stroke-dashoffset:-0;" d=" M 150 400 L 150 100" /></svg>